<mxfile host="app.diagrams.net" modified="2023-07-10T03:03:30.550Z" agent="Mozilla/5.0 (Windows NT 10.0; Win64; x64) AppleWebKit/537.36 (KHTML, like Gecko) Chrome/114.0.0.0 Safari/537.36" version="21.6.1" etag="RnfKCWVhPOML6i_E2K8_" type="github">
  <diagram name="페이지-1" id="MD7WUyoTP1-pZExNWmUf">
    <mxGraphModel>
      <root>
        <mxCell id="0" />
        <mxCell id="1" parent="0" />
      </root>
    </mxGraphModel>
  </diagram>
</mxfile>
